<?xml version="1.0" encoding="UTF-8" standalone="no"?>
<svg width="512px" height="512px" viewBox="0 0 512 512" version="1.1" xmlns="http://www.w3.org/2000/svg" xmlns:xlink="http://www.w3.org/1999/xlink">
    <!-- Generator: Sketch 41 (35326) - http://www.bohemiancoding.com/sketch -->
    <title>desk-lamp</title>
    <desc>Created with Sketch.</desc>
    <defs></defs>
    <g id="Page-1" stroke="none" stroke-width="1" fill="none" fill-rule="evenodd">
        <g id="desk-lamp">
            <g id="Layer_1">
                <path d="M256.004,512.001 C397.003,512.001 512.003,397.001 512.003,256 C512.003,115.001 397.003,0.001 256.004,0.001 C115.002,0.001 0.003,115.001 0.003,256 C0.003,397.001 115.002,512.001 256.004,512.001 L256.004,512.001 Z" id="Shape" fill="#5DDDD3"></path>
                <path d="M137.214,168.972 L1.595,227.451 C0.553,236.826 0,246.347 0,256 C0,368.991 73.202,464.874 174.767,498.834 L252.822,285.246 L137.211,168.974 L137.214,168.972 L137.214,168.972 Z" id="Shape" fill="#82EDE4"></path>
                <path d="M280.626,489.11 L454.934,489.11 C468.487,489.11 477.198,508.895 463.648,508.895 L271.912,508.895 C258.364,508.895 267.075,489.11 280.628,489.11 L280.626,489.11 L280.626,489.11 Z" id="Shape" fill="#0E7886"></path>
                <path d="M452.461,316.426 L443.33,489.11 L422.724,489.11 L440.896,324.205 C445.473,322.857 449.478,320.105 452.463,316.425 L452.461,316.425 L452.461,316.426 Z M377.207,489.11 L377.207,489.11 L397.729,489.11 L424.14,322.658 C420.316,320.714 417.074,317.722 414.76,314.041 L377.207,489.113 L377.207,489.11 L377.207,489.11 Z" id="Shape" fill="#FF5B61"></path>
                <path d="M211.628,152.578 L253.006,111.436 C263.22,101.282 279.881,101.33 290.035,111.541 L311.129,132.756 C321.283,142.97 321.235,159.631 311.021,169.787 L269.646,210.929 L211.628,152.578 L211.628,152.578 Z" id="Shape" fill="#0E7886"></path>
                <path d="M171.643,250.353 C156.304,234.927 156.65,209.712 172.414,194.035 C183.084,183.428 198.077,179.905 211.413,183.517 L224.502,170.504 C226.063,168.951 228.578,168.93 230.099,170.459 L250.459,190.934 C251.98,192.466 251.944,194.979 250.383,196.531 L238.06,208.783 C242.616,222.664 239.219,238.709 227.967,249.901 C212.198,265.576 186.983,265.778 171.644,250.35 L171.644,250.353 L171.643,250.353 Z" id="Shape" fill="#FFFFFF"></path>
                <g id="Group" transform="translate(137.000000, 138.000000)" fill="#0E7886">
                    <path d="M0.214,30.972 C86.99,-55.311 202.601,60.963 115.825,147.247 L0.214,30.972 L0.214,30.972 Z" id="Shape"></path>
                    <path d="M297.462,186.709 C310.422,186.709 320.993,176.138 320.993,163.181 C320.993,150.221 310.422,139.65 297.462,139.65 C284.502,139.65 273.934,150.221 273.934,163.181 C273.934,176.141 284.504,186.709 297.462,186.709 L297.462,186.709 Z" id="Shape"></path>
                </g>
                <path d="M434.462,312.358 C440.621,312.358 445.641,307.335 445.641,301.179 C445.641,295.02 440.621,290.002 434.462,290.002 C428.306,290.002 423.283,295.022 423.283,301.179 C423.283,307.336 428.303,312.358 434.462,312.358 L434.462,312.358 Z" id="Shape" fill="#FFFFFF"></path>
                <polygon id="Shape" fill="#FBB429" points="309.159 482.826 352.462 476.539 352.462 489.111 309.159 489.111 309.159 482.824"></polygon>
                <path d="M326.89,172.835 L438.669,278.03 C437.305,277.786 435.897,277.655 434.462,277.655 C431.162,277.655 428.023,278.334 425.174,279.559 L324.314,179.417 L316.694,186.234 L413.831,289.866 C411.984,293.226 410.935,297.079 410.935,301.184 C410.935,301.785 410.959,302.383 411.001,302.973 L309.82,188.426 L307.887,186.238 L310.061,184.294 L322.919,172.79 L324.928,170.991 L326.887,172.838 L326.89,172.835 L326.89,172.835 Z" id="Shape" fill="#FF5B61"></path>
                <path d="M277.297,164.271 L301.919,139.791 L335.097,173.163 C341.83,179.933 341.796,190.981 335.026,197.712 L335.023,197.715 C328.256,204.446 317.208,204.417 310.474,197.644 L277.296,164.274 L277.296,164.271 L277.297,164.271 Z" id="Shape" fill="#0E7886"></path>
                <path d="M323.882,193.937 C328.614,193.937 332.472,190.079 332.472,185.347 C332.472,180.618 328.614,176.759 323.882,176.759 C319.15,176.759 315.292,180.617 315.292,185.347 C315.291,190.079 319.147,193.937 323.882,193.937 L323.882,193.937 Z" id="Shape" fill="#FFFFFF"></path>
                <path d="M31.025,408.595 L210.603,408.595 L210.603,414.651 C202.102,425.489 203.505,437.542 210.603,446.573 L210.603,452.629 L31.025,452.629 C2.972,452.629 2.969,408.592 31.025,408.592 L31.025,408.595 L31.025,408.595 Z" id="Shape" fill="#20D0C2"></path>
                <path d="M210.603,446.576 C203.356,435.935 202.807,425.296 210.603,414.654 L31.025,414.654 C22.582,414.654 15.652,421.849 15.652,430.615 C15.652,439.384 22.579,446.576 31.025,446.576 L210.603,446.576 L210.603,446.576 Z" id="Shape" fill="#FFFFFF"></path>
                <g id="Group" transform="translate(15.000000, 414.000000)" fill="#ECF0F1">
                    <path d="M193.882,3.222 C194.401,2.367 194.973,1.509 195.603,0.651 L16.025,0.651 C-1.148,0.651 -5.966,25.268 11.356,31.81 C-0.471,26.05 3.943,6.425 16.358,3.219 L193.882,3.219 L193.882,3.222 L193.882,3.222 Z" id="Shape"></path>
                    <path d="M192.109,6.262 L4.358,6.262 C4.707,5.842 5.071,5.438 5.46,5.058 L192.715,5.058 C192.502,5.46 192.295,5.861 192.109,6.262 L192.109,6.262 Z M2.789,8.534 L2.789,8.534 C2.569,8.925 2.359,9.326 2.167,9.741 L190.765,9.741 C190.886,9.337 191.022,8.938 191.164,8.534 L2.789,8.534 L2.789,8.534 Z M1.312,12.009 L1.312,12.009 C1.197,12.405 1.094,12.806 1.008,13.216 L189.987,13.216 C190.045,12.815 190.116,12.413 190.194,12.009 L1.315,12.009 L1.312,12.009 L1.312,12.009 Z M0.693,15.487 L0.693,15.487 C0.669,15.859 0.654,16.235 0.654,16.612 L0.654,16.693 L189.743,16.693 C189.743,16.292 189.751,15.89 189.767,15.486 L0.691,15.486 L0.693,15.486 L0.693,15.487 Z M0.822,18.965 L0.822,18.965 C0.88,19.372 0.956,19.776 1.042,20.169 L190.029,20.169 C189.966,19.77 189.914,19.369 189.872,18.965 L0.822,18.965 L0.822,18.965 Z M1.724,22.443 L1.724,22.443 C1.881,22.852 2.054,23.254 2.241,23.647 L190.837,23.647 C190.714,23.248 190.598,22.847 190.496,22.443 L1.724,22.443 L1.724,22.443 Z M3.566,25.922 L3.566,25.922 C3.857,26.339 4.164,26.74 4.492,27.126 L192.204,27.126 C192.013,26.727 191.834,26.323 191.666,25.922 L3.566,25.922 L3.566,25.922 Z M6.86,29.397 L6.86,29.397 C7.432,29.84 8.032,30.244 8.659,30.601 L194.181,30.601 C193.916,30.205 193.667,29.804 193.423,29.397 L6.86,29.397 L6.86,29.397 Z" id="Shape"></path>
                </g>
                <path d="M226.002,452.633 L17.697,452.633 L17.697,460.371 C27.559,474.22 25.931,489.62 17.697,501.161 L17.697,508.899 L226.002,508.899 C258.545,508.899 258.548,452.636 226.002,452.636 L226.002,452.633 L226.002,452.633 Z" id="Shape" fill="#FF5B61"></path>
                <path d="M17.697,501.158 C26.106,487.563 26.741,473.965 17.697,460.368 L226.004,460.368 C235.798,460.368 243.835,469.562 243.835,480.762 C243.835,491.965 235.796,501.156 226.004,501.156 L17.697,501.156 L17.697,501.158 L17.697,501.158 Z" id="Shape" fill="#FFFFFF"></path>
                <g id="Group" transform="translate(17.000000, 460.000000)" fill="#ECF0F1">
                    <path d="M2.693,3.654 C2.09,2.558 1.426,1.464 0.697,0.37 L209.004,0.37 C228.926,0.37 234.513,31.822 214.418,40.182 C228.139,32.825 223.016,7.749 208.616,3.657 L2.693,3.657 L2.693,3.654 L2.693,3.654 Z" id="Shape"></path>
                    <path d="M4.752,7.536 L222.539,7.536 C222.138,6.998 221.713,6.487 221.262,5.996 L4.047,5.996 C4.296,6.508 4.532,7.022 4.752,7.536 L4.752,7.536 Z M224.357,10.44 L224.357,10.44 C224.617,10.941 224.858,11.452 225.081,11.98 L6.311,11.98 C6.169,11.469 6.017,10.954 5.847,10.44 L224.355,10.44 L224.357,10.44 L224.357,10.44 Z M226.073,14.883 L226.073,14.883 C226.207,15.389 226.322,15.903 226.422,16.423 L7.213,16.423 C7.145,15.911 7.066,15.397 6.972,14.883 L226.07,14.883 L226.073,14.883 L226.073,14.883 Z M226.791,19.327 L226.791,19.327 C226.82,19.804 226.838,20.282 226.838,20.764 L226.838,20.866 L7.499,20.866 C7.502,20.355 7.491,19.84 7.47,19.326 L226.794,19.326 L226.791,19.326 L226.791,19.327 Z M226.642,23.77 L226.642,23.77 C226.574,24.289 226.487,24.803 226.385,25.31 L7.166,25.31 C7.237,24.799 7.3,24.284 7.35,23.77 L226.64,23.77 L226.642,23.77 L226.642,23.77 Z M225.595,28.213 L225.595,28.213 C225.411,28.738 225.212,29.249 224.992,29.753 L6.227,29.753 C6.369,29.242 6.505,28.727 6.623,28.213 L225.593,28.213 L225.595,28.213 L225.595,28.213 Z M223.46,32.654 L223.46,32.654 C223.124,33.189 222.765,33.703 222.385,34.194 L4.645,34.194 C4.865,33.685 5.073,33.171 5.267,32.654 L223.46,32.654 L223.46,32.654 Z M219.638,37.1 L219.638,37.1 C218.974,37.667 218.277,38.181 217.55,38.637 L2.35,38.637 C2.654,38.131 2.948,37.617 3.231,37.1 L219.636,37.1 L219.638,37.1 L219.638,37.1 Z" id="Shape"></path>
                </g>
                <path d="M194.356,364.484 L55.697,364.484 L55.697,370.54 C62.262,381.376 61.179,393.431 55.697,402.462 L55.697,408.518 L194.356,408.518 C216.019,408.518 216.019,364.481 194.356,364.481 L194.356,364.484 L194.356,364.484 Z" id="Shape" fill="#FBB429"></path>
                <path d="M55.697,402.463 C61.292,391.822 61.717,381.183 55.697,370.541 L194.356,370.541 C200.877,370.541 206.225,377.736 206.225,386.502 C206.225,395.271 200.877,402.463 194.356,402.463 L55.697,402.463 L55.697,402.463 Z" id="Shape" fill="#FFFFFF"></path>
                <g id="Group" transform="translate(55.000000, 370.000000)" fill="#ECF0F1">
                    <path d="M2.026,3.111 C1.625,2.253 1.181,1.396 0.699,0.54 L139.358,0.54 C152.62,0.54 156.339,25.154 142.965,31.699 C152.098,25.942 148.688,6.316 139.101,3.111 L2.029,3.111 L2.026,3.111 L2.026,3.111 Z" id="Shape"></path>
                    <path d="M3.398,6.151 L148.365,6.151 C148.097,5.729 147.812,5.325 147.515,4.944 L2.929,4.944 C3.091,5.346 3.249,5.747 3.398,6.151 L3.398,6.151 Z M149.578,8.423 L149.578,8.423 C149.749,8.816 149.911,9.218 150.058,9.63 L4.434,9.63 C4.34,9.226 4.237,8.827 4.127,8.423 L149.58,8.423 L149.578,8.423 L149.578,8.423 Z M150.719,11.901 L150.719,11.901 C150.808,12.297 150.887,12.698 150.952,13.105 L5.038,13.105 C4.991,12.704 4.938,12.302 4.875,11.901 L150.716,11.901 L150.719,11.901 L150.719,11.901 Z M151.196,15.379 L151.196,15.379 C151.217,15.751 151.225,16.127 151.225,16.504 L151.225,16.583 L5.224,16.583 C5.224,16.182 5.219,15.78 5.203,15.379 L151.196,15.379 L151.196,15.379 Z M151.096,18.857 L151.096,18.857 C151.051,19.264 150.994,19.665 150.925,20.061 L5.004,20.061 C5.054,19.662 5.096,19.261 5.125,18.857 L151.096,18.857 L151.096,18.857 Z M150.399,22.335 L150.399,22.335 C150.278,22.744 150.142,23.148 149.998,23.539 L4.377,23.539 C4.474,23.14 4.561,22.739 4.642,22.335 L150.399,22.335 L150.399,22.335 Z M148.977,25.813 L148.977,25.813 C148.751,26.23 148.513,26.631 148.261,27.02 L3.322,27.02 C3.466,26.621 3.605,26.22 3.736,25.813 L148.977,25.813 L148.977,25.813 Z M146.433,29.289 L146.433,29.289 C145.992,29.735 145.528,30.136 145.043,30.496 L1.796,30.496 C2.001,30.1 2.195,29.696 2.384,29.289 L146.433,29.289 L146.433,29.289 Z" id="Shape"></path>
                </g>
            </g>
        </g>
    </g>
</svg>