<?xml version="1.0" encoding="UTF-8" standalone="no"?>
<svg width="400px" height="512px" viewBox="0 0 400 512" version="1.1" xmlns="http://www.w3.org/2000/svg" xmlns:xlink="http://www.w3.org/1999/xlink">
    <!-- Generator: Sketch 41 (35326) - http://www.bohemiancoding.com/sketch -->
    <title>test</title>
    <desc>Created with Sketch.</desc>
    <defs></defs>
    <g id="Page-1" stroke="none" stroke-width="1" fill="none" fill-rule="evenodd">
        <g id="test">
            <g id="Layer_1">
                <g id="Group">
                    <path d="M360,40 L40,40 C17.945,40 0,57.945 0,80 L0,472 C0,494.055 17.945,512 40,512 L360,512 C382.055,512 400,494.055 400,472 L400,80 C400,57.945 382.055,40 360,40 L360,40 Z" id="Shape" fill="#996459"></path>
                    <path d="M359.6,72 C364.239,72 368,75.728 368,80.327 L368,471.674 C368,476.273 364.239,480.001 359.6,480.001 L40.4,480.001 C35.761,480.001 32,476.273 32,471.674 L32,80.326 C32,75.728 35.761,72 40.4,72 L359.6,72 L359.6,72 Z" id="Shape" fill="#FFFFFF"></path>
                    <path d="M144,216 L96,216 C87.18,216 80,208.82 80,200 L80,152 C80,143.18 87.18,136 96,136 L144,136 C152.82,136 160,143.18 160,152 L160,200 C160,208.82 152.82,216 144,216 L144,216 Z M96,152 L96,200 L144.016,200 L144,152 L96,152 L96,152 Z" id="Shape" fill="#B4B6BC"></path>
                    <path d="M208,160 L184,160 C179.578,160 176,156.422 176,152 C176,147.578 179.578,144 184,144 L208,144 C212.422,144 216,147.578 216,152 C216,156.422 212.422,160 208,160 L208,160 Z" id="Shape" fill="#5C546A"></path>
                    <path d="M304,192 L184,192 C179.578,192 176,188.422 176,184 C176,179.578 179.578,176 184,176 L304,176 C308.422,176 312,179.578 312,184 C312,188.422 308.422,192 304,192 L304,192 Z" id="Shape" fill="#868491"></path>
                    <path d="M264,272 L184,272 C179.578,272 176,268.422 176,264 C176,259.578 179.578,256 184,256 L264,256 C268.422,256 272,259.578 272,264 C272,268.422 268.422,272 264,272 L264,272 Z" id="Shape" fill="#5C546A"></path>
                    <path d="M304,304 L184,304 C179.578,304 176,300.422 176,296 C176,291.578 179.578,288 184,288 L304,288 C308.422,288 312,291.578 312,296 C312,300.422 308.422,304 304,304 L304,304 Z" id="Shape" fill="#868491"></path>
                    <path d="M216,376 L184,376 C179.578,376 176,372.422 176,368 C176,363.578 179.578,360 184,360 L216,360 C220.422,360 224,363.578 224,368 C224,372.422 220.422,376 216,376 L216,376 Z" id="Shape" fill="#5C546A"></path>
                    <path d="M304,408 L184,408 C179.578,408 176,404.422 176,400 C176,395.578 179.578,392 184,392 L304,392 C308.422,392 312,395.578 312,400 C312,404.422 308.422,408 304,408 L304,408 Z" id="Shape" fill="#868491"></path>
                    <path d="M232,40 C227.578,40 224,36.422 224,32 L224,24 C224,19.586 220.414,16 216,16 L184,16 C179.586,16 176,19.586 176,24 L176,32 C176,36.422 172.422,40 168,40 C163.578,40 160,36.422 160,32 L160,24 C160,10.766 170.766,0 184,0 L216,0 C229.234,0 240,10.766 240,24 L240,32 C240,36.422 236.422,40 232,40 L232,40 Z" id="Shape" fill="#868491"></path>
                    <path d="M288,24 L112,24 C107.582,24 104,27.582 104,32 L104,56 C104,78.091 121.909,96 144,96 L256,96 C278.091,96 296,78.091 296,56 L296,32 C296,27.582 292.418,24 288,24 L288,24 Z" id="Shape" fill="#B4B6BC"></path>
                    <path d="M144,320 L96,320 C87.18,320 80,312.82 80,304 L80,256 C80,247.18 87.18,240 96,240 L144,240 C152.82,240 160,247.18 160,256 L160,304 C160,312.82 152.82,320 144,320 L144,320 Z M96,256 L96,304 L144.016,304 L144,256 L96,256 L96,256 Z" id="Shape" fill="#B4B6BC"></path>
                    <path d="M144,424 L96,424 C87.18,424 80,416.82 80,408 L80,360 C80,351.18 87.18,344 96,344 L144,344 C152.82,344 160,351.18 160,360 L160,408 C160,416.82 152.82,424 144,424 L144,424 Z M96,360 L96,408 L144.016,408 L144,360 L96,360 L96,360 Z" id="Shape" fill="#B4B6BC"></path>
                    <path d="M128,296 C125.953,296 123.906,295.219 122.344,293.656 L106.344,277.656 C103.219,274.531 103.219,269.468 106.344,266.343 C109.469,263.218 114.532,263.218 117.657,266.343 L128,276.687 L162.344,242.343 C165.469,239.218 170.532,239.218 173.657,242.343 C176.782,245.468 176.782,250.53 173.657,253.655 L133.657,293.655 C132.094,295.219 130.047,296 128,296 L128,296 Z" id="Shape" fill="#FF4F19"></path>
                </g>
            </g>
        </g>
    </g>
</svg>