<?xml version="1.0" encoding="UTF-8" standalone="no"?>
<svg width="512px" height="512px" viewBox="0 0 512 512" version="1.1" xmlns="http://www.w3.org/2000/svg" xmlns:xlink="http://www.w3.org/1999/xlink">
    <!-- Generator: Sketch 41 (35326) - http://www.bohemiancoding.com/sketch -->
    <title>chat</title>
    <desc>Created with Sketch.</desc>
    <defs></defs>
    <g id="Page-1" stroke="none" stroke-width="1" fill="none" fill-rule="evenodd">
        <g id="chat">
            <g id="Layer_1">
                <path d="M256.002,512 C397.004,512 512.002,396.997 512.002,256 C512.002,114.998 397.004,0 256.002,0 C115,0 0.002,114.998 0.002,256 C0.002,397.002 115.005,512 256.002,512 L256.002,512 Z" id="Shape" fill="#5DDDD3"></path>
                <path d="M350.682,269.528 C358.566,256.272 370.995,240.882 358.372,217.493 C339.795,136.258 425.418,119.783 438.364,153.311 C459.43,161.255 458.871,204.986 448.036,227.867 C447.551,237.285 437.764,245.497 455.454,269.792 L456.729,269.515 L456.729,269.515 C433.779,276.166 374.95,273.103 350.682,269.528 L350.682,269.528 Z" id="Shape" fill="#666666"></path>
                <path d="M373.181,227.451 C379.638,241.012 382.021,246.309 390.044,252.402 C388.169,286.941 361.648,270.438 342.254,301.754 C340.577,304.456 335.335,317.97 330.712,331.106 C352.203,345.179 377.888,353.368 405.495,353.368 C433.097,353.368 458.786,345.179 480.278,331.106 C475.655,317.966 470.412,304.456 468.736,301.754 C449.342,270.439 422.816,286.942 420.946,252.402 C428.964,246.305 431.352,241.012 437.809,227.451 C439.389,228.278 441.047,229.4 442.331,227.954 C443.615,226.508 449.73,207.747 448.631,205.211 C447.532,202.68 446.46,204.292 444.816,205.442 C444.904,204.897 443.523,212.222 443.541,211.109 C443.698,202.255 437.352,194.449 435.361,171.013 C416.946,205.067 363.913,191.063 366.176,205.446 C355.848,198.213 368.398,227.662 368.661,227.953 C369.943,229.4 371.596,228.278 373.181,227.451 L373.181,227.451 Z" id="Shape" fill="#FED198"></path>
                <path d="M385.762,268.531 C383.49,272.101 380.45,274.383 376.922,276.267 L376.927,276.272 L406.515,332.353 L433.974,276.23 C430.043,274.119 426.723,271.5 424.404,267.14 L424.399,267.135 L405.628,276.474 L405.051,276.516 L388.396,267.602 L385.763,268.535 L385.763,268.531 L385.762,268.531 Z" id="Shape" fill="#ECF0F1"></path>
                <polygon id="Shape" fill="#FFCA4F" points="400.875 276.692 402.626 281.911 398.737 341.392 405.453 347.6 412.169 341.392 408.275 281.911 410.025 276.692 405.452 276.47 400.879 276.692"></polygon>
                <path d="M376.926,276.263 C367.093,281.519 353.476,283.635 342.248,301.754 C340.571,304.456 335.329,317.97 330.706,331.106 C352.197,345.179 377.882,353.368 405.489,353.368 C433.091,353.368 458.78,345.179 480.272,331.106 C475.649,317.966 470.406,304.456 468.73,301.754 C457.474,283.579 443.816,281.51 433.969,276.226 L405.693,331.661 L376.927,276.268 L376.922,276.263 L376.926,276.263 L376.926,276.263 Z" id="Shape" fill="#15BDB1"></path>
                <path d="M387.882,261.88 L383.425,271.182 L396.685,293.458 L405.359,276.47 L387.886,261.879 L387.882,261.879 L387.882,261.88 Z M423.096,261.88 L423.096,261.88 L427.636,270.965 L414.297,293.458 L405.628,276.47 L423.096,261.88 L423.096,261.88 Z" id="Shape" fill="#FFFFFF"></path>
                <path d="M379.18,274.951 L405.701,326.607 L431.825,274.974 C433.137,275.81 434.536,276.549 436.005,277.256 L405.701,336.473 L375.111,277.186 C376.538,276.498 377.901,275.773 379.18,274.955 L379.18,274.951 L379.18,274.951 Z" id="Shape" fill="#20D0C2"></path>
                <polygon id="Shape" fill="#F0B97D" points="127.471 243.566 137.789 243.566 169.09 243.566 179.408 243.566 183.616 287.343 191.089 293.338 206.848 303.375 153.437 429.537 100.026 303.375 115.785 293.338 123.263 287.347 127.466 243.57"></polygon>
                <polygon id="Shape" fill="#ECF0F1" points="110.336 296.576 67.284 310.317 153.443 429.537 226.743 306.317 196.328 296.673 169.544 315.582 137.434 315.582 110.336 296.571 110.336 296.576"></polygon>
                <polygon id="Shape" fill="#FFCA4F" points="143.831 313.85 147.512 322.931 139.332 426.391 153.447 437.19 167.557 426.391 159.377 322.931 163.058 313.85 153.446 313.467 143.834 313.85"></polygon>
                <path d="M111.075,296.345 L34.93,320.649 C34.93,320.649 25.009,326.104 22.099,341.36 C21.545,344.274 21.245,350.168 21.115,357.923 C57.446,441.537 137.106,501.955 231.754,510.85 L236.109,438.354 L240.234,511.506 C245.449,511.825 250.705,512.005 255.998,512.005 C268.866,512.005 281.503,511.044 293.858,509.211 C291.47,473.374 287.447,355.314 284.787,341.36 C281.873,326.104 271.956,320.649 271.956,320.649 L196.328,296.678 L154.066,435.241 L111.075,296.35 L111.075,296.345 L111.075,296.345 Z" id="Shape" fill="#15BDB1"></path>
                <path d="M111.075,296.345 L94.651,301.587 L91.496,343.262 C91.496,343.262 92.364,346.685 94.974,346.38 L109.796,351.955 C109.796,351.955 110.771,352.925 109.902,354.154 L97.214,362.847 L154.986,467.716 L209.677,362.847 L196.989,354.154 C196.121,352.925 197.091,351.955 197.091,351.955 L211.913,346.38 C214.523,346.689 215.391,343.262 215.391,343.262 L212.246,301.721 L196.325,296.673 L154.063,435.236 L111.07,296.345 L111.075,296.345 L111.075,296.345 Z" id="Shape" fill="#20D0C2"></path>
                <path d="M90.031,152.909 C90.031,157.172 88.474,161.347 88.59,165.44 C73.999,162.733 81.048,206.071 89.301,212.03 C89.957,212.501 91.573,211.448 92.931,210.58 C95.795,226.519 120.233,269.114 135.775,287.039 C140.089,292.018 166.476,291.935 170.748,287.228 C186.664,269.704 211.074,226.607 213.952,210.575 C215.315,211.443 216.926,212.496 217.582,212.025 C225.836,206.067 232.884,162.729 218.293,165.435 C218.408,161.343 216.852,157.167 216.852,152.904 C216.044,119.252 185.551,102.449 153.441,102.305 C121.331,102.448 90.838,119.251 90.025,152.904 L90.031,152.909 L90.031,152.909 Z" id="Shape" fill="#FED198"></path>
                <path d="M109.583,109.765 C104.983,109.229 88.36,114.319 86.364,131.907 C84.369,149.491 85.32,165.698 85.32,165.698 C85.32,165.698 95.056,168.155 96.285,178.136 C97.509,188.117 96.636,188.117 96.636,188.117 L100.165,187.323 L102.678,170.21 C117.246,161.079 102.567,147.56 117.139,144.391 C156.491,172.436 191.215,167.637 206.872,154.441 C206.872,154.441 203.214,168.242 206.036,173.161 C208.853,178.085 207.172,185.835 207.172,185.835 L210.835,185.659 C210.835,185.659 210.175,165.336 218.299,165.429 C249.171,114.452 151.433,51.138 109.587,109.754 L109.583,109.765 L109.583,109.765 Z" id="Shape" fill="#666666"></path>
                <g id="Group" transform="translate(110.000000, 114.000000)" fill="#FFFFFF">
                    <path d="M12.908,167.094 C13.998,167.173 0.197,182.738 0.197,182.738 L11.947,222.972 L43.447,199.467 C26.117,190.964 15.781,179.952 12.908,167.094 L12.908,167.094 Z" id="Shape"></path>
                    <path d="M73.982,167.094 C72.892,167.173 86.693,182.738 86.693,182.738 L74.943,222.972 L43.443,199.467 C60.768,190.964 71.114,179.952 73.982,167.094 L73.982,167.094 Z" id="Shape"></path>
                    <path d="M217.649,54.848 L241.209,79.027 L234.784,54.848 L236.728,54.848 C239.684,54.848 242.104,52.428 242.104,49.472 L242.104,5.589 C242.104,2.633 239.688,0.213 236.728,0.213 L155.678,0.213 C152.722,0.213 150.302,2.629 150.302,5.589 L150.302,49.472 C150.302,52.428 152.718,54.848 155.678,54.848 L217.643,54.848 L217.649,54.848 L217.649,54.848 Z" id="Shape"></path>
                </g>
                <path d="M272.223,121.742 L334.6,121.742 L334.6,124.929 L272.223,124.929 L272.223,121.742 L272.223,121.742 Z M272.223,143.759 L272.223,143.759 L309.182,143.759 L309.182,146.946 L272.223,146.946 L272.223,143.759 L272.223,143.759 Z M272.223,136.42 L272.223,136.42 L334.6,136.42 L334.6,139.607 L272.223,139.607 L272.223,136.42 L272.223,136.42 Z M272.223,129.081 L272.223,129.081 L334.6,129.081 L334.6,132.268 L272.223,132.268 L272.223,129.081 L272.223,129.081 Z" id="Shape" fill="#C8CACC"></path>
                <path d="M261.919,260.069 L234.146,288.571 L241.716,260.069 L239.42,260.069 C235.937,260.069 233.088,257.219 233.088,253.737 L233.088,202.011 C233.088,198.528 235.938,195.679 239.42,195.679 L334.955,195.679 C338.438,195.679 341.287,198.529 341.287,202.011 L341.287,253.737 C341.287,257.22 338.437,260.069 334.955,260.069 L261.914,260.069 L261.919,260.069 L261.919,260.069 Z" id="Shape" fill="#FFFFFF"></path>
                <path d="M327.247,204.547 L253.721,204.547 L253.721,208.302 L327.247,208.302 L327.247,204.547 L327.247,204.547 Z M327.247,230.5 L327.247,230.5 L283.683,230.5 L283.683,234.255 L327.247,234.255 L327.247,230.5 L327.247,230.5 Z M327.247,221.849 L327.247,221.849 L253.721,221.849 L253.721,225.604 L327.247,225.604 L327.247,221.849 L327.247,221.849 Z M327.247,213.198 L327.247,213.198 L253.721,213.198 L253.721,216.953 L327.247,216.953 L327.247,213.198 L327.247,213.198 Z" id="Shape" fill="#C8CACC"></path>
            </g>
        </g>
    </g>
</svg>