<?xml version="1.0" encoding="UTF-8" standalone="no"?>
<svg width="512px" height="512px" viewBox="0 0 512 512" version="1.1" xmlns="http://www.w3.org/2000/svg" xmlns:xlink="http://www.w3.org/1999/xlink">
    <!-- Generator: Sketch 41 (35326) - http://www.bohemiancoding.com/sketch -->
    <title>graduates</title>
    <desc>Created with Sketch.</desc>
    <defs></defs>
    <g id="Page-1" stroke="none" stroke-width="1" fill="none" fill-rule="evenodd">
        <g id="graduates">
            <g id="Layer_1">
                <path d="M255.999,512 C397,512 512,397 512,256.001 C512,115 397,0 255.999,0 C115,0 0,115 0,256.001 C0,397 115,512 255.999,512 L255.999,512 Z" id="Shape" fill="#5DDDD3"></path>
                <polygon id="Shape" fill="#666666" points="21.748 248.542 97.411 282.891 168.634 250.559 92.971 216.212 21.748 248.544 21.748 248.542"></polygon>
                <path d="M80.119,327.502 L110.263,327.502 L112.704,352.908 L120.081,358.323 L163.973,372.238 C163.973,372.238 169.73,375.404 171.421,384.259 C172.162,388.142 173.732,465.855 175.376,499.043 C111.01,477.705 57.98,431.513 27.648,371.844 L70.6,358.132 L77.678,352.911 L80.119,327.505 L80.119,327.502 L80.119,327.502 Z" id="Shape" fill="#F0B97D"></path>
                <path d="M117.432,366.086 C110.158,374.583 85.865,378.252 72.484,363.733 L95.189,431.32 L117.432,366.086 L117.432,366.086 Z" id="Shape" fill="#FFFFFF"></path>
                <path d="M57.551,288.915 C48.099,287.239 56.158,315.472 63.061,311.263 L66.767,322.144 C70.107,331.949 78.525,340.874 84.935,347.941 C87.435,350.697 102.757,350.651 105.233,348.047 C112.33,340.584 120.762,332.201 123.928,322.092 L127.319,311.264 C134.236,315.469 142.277,287.24 132.829,288.916 C133.484,266.94 117.944,245.617 95.192,245.518 C72.44,245.617 56.898,266.94 57.553,288.916 L57.551,288.916 L57.551,288.915 Z" id="Shape" fill="#FED198"></path>
                <path d="M70.601,358.129 L27.649,371.841 C58.076,431.704 111.349,477.988 175.99,499.239 C174.138,477.543 172.255,388.618 171.422,384.255 C169.731,375.4 163.974,372.234 163.974,372.234 L120.082,358.319 L95.189,431.317 L70.601,358.128 L70.601,358.129 L70.601,358.129 Z" id="Shape" fill="#FF5B61"></path>
                <path d="M122.326,249.845 C124.998,249.532 134.644,258.347 135.802,268.551 C136.962,278.755 134.739,289.043 134.739,289.043 C127.95,288.712 130.089,299.09 128.612,300.731 L126.698,300.773 L125.984,293.81 C117.528,288.51 129.32,267.575 120.864,265.738 C106.387,277.662 84.914,282.074 66.177,279.013 C60.918,279.712 68.569,286.357 66.351,294.006 C64.715,296.861 65.692,301.364 65.692,301.364 L63.247,301.668 C63.247,301.668 61.699,288.759 56.983,288.809 C55.839,282.86 55.365,279.311 55.684,274.041 C57.296,247.067 93.563,231.708 122.33,249.843 L122.326,249.845 L122.326,249.845 Z" id="Shape" fill="#666666"></path>
                <path d="M55.718,251.327 C72.876,238.259 120.267,238.003 135.577,251.208 L136.384,272.529 C109.668,264.6 82.101,265.326 54.785,273.343 L55.718,251.327 L55.718,251.327 Z" id="Shape" fill="#807D7D"></path>
                <path d="M41.052,240.563 L41.169,278.36 L41.169,279.529 L38.955,279.529 L38.955,278.36 L38.955,241.281 C39.032,239.114 40.902,238.817 41.052,240.563 L41.052,240.563 Z" id="Shape" fill="#FFFFFF"></path>
                <path d="M35.992,285.18 C35.992,295.247 33.878,303.91 33.761,304.488 C33.64,305.066 35.677,306.966 36.069,305.066 C36.457,303.168 36.029,305.106 37.828,305.229 C39.601,305.352 39.969,304.473 39.982,304.449 C39.991,304.473 40.361,305.355 42.132,305.229 C43.931,305.106 43.503,303.165 43.894,305.066 C44.286,306.964 46.322,305.066 46.202,304.488 C46.087,303.913 43.975,295.248 43.975,285.18 C43.88,281.324 42.37,279.507 39.984,278.951 C37.596,279.507 36.086,281.326 35.993,285.18 L35.992,285.18 L35.992,285.18 Z" id="Shape" fill="#FF5B61"></path>
                <path d="M40.029,278.949 C43.987,278.949 44.101,281.46 43.901,283.789 C43.03,283.033 41.621,282.539 40.029,282.539 C38.439,282.539 37.03,283.031 36.157,283.789 C36.018,281.088 36.073,278.949 40.029,278.949 L40.029,278.949 Z" id="Shape" fill="#807D7D"></path>
                <g id="Group" transform="translate(358.000000, 216.000000)" fill="#666666">
                    <polygon id="Shape" points="0.801 29.546 69.923 60.921 134.983 31.385 65.861 0.01"></polygon>
                    <path d="M20.072,138.674 C26.867,127.253 37.576,113.997 26.7,93.841 C10.691,23.851 84.462,9.66 95.619,38.544 C113.767,45.388 113.284,83.064 103.951,102.777 C103.536,110.893 95.096,117.966 110.343,138.901 L111.439,138.658 L111.437,138.658 C91.662,144.391 40.975,141.749 20.071,138.671 L20.072,138.674 L20.072,138.674 Z" id="Shape"></path>
                </g>
                <path d="M411.982,339.922 C411.303,352.456 406.856,357.19 400.687,360.484 C397.552,363.253 370.007,366.572 366.285,376.632 C365.493,378.764 363.112,445.352 360.85,489.411 C413.59,465.702 456.84,424.657 483.366,373.534 C475.448,365.112 452.366,363.099 449.647,360.828 C443.612,357.452 439.278,352.487 438.605,339.917 C438.605,339.917 429.589,346.911 423.983,345.837 C418.376,344.761 411.982,339.917 411.982,339.917 L411.982,339.922 L411.982,339.922 Z" id="Shape" fill="#F0B97D"></path>
                <path d="M397.457,319.364 C403.018,331.277 405.075,335.929 411.985,341.282 C411.985,341.282 418.377,346.214 423.984,347.314 C429.589,348.412 438.604,341.282 438.604,341.282 C445.512,335.929 447.569,331.276 453.132,319.364 C454.497,320.089 455.919,321.075 457.026,319.807 C458.135,318.539 463.405,302.056 462.454,299.836 C461.506,297.614 460.58,299.031 459.169,300.037 C459.242,299.559 458.051,305.99 458.071,305.013 C458.201,297.234 452.735,296.002 451.02,275.415 C425.808,300.429 402.258,288.953 394.051,290.626 C391.672,291.111 390.975,297.201 391.414,300.036 C382.517,293.684 393.328,319.549 393.555,319.807 C394.664,321.075 396.086,320.089 397.451,319.364 L397.457,319.364 L397.457,319.364 Z" id="Shape" fill="#FED198"></path>
                <path d="M400.682,360.482 C390.271,364.843 374.063,365.037 365.951,375.645 C364.416,377.654 357.118,449.278 351.684,493.31 C408.569,470.371 455.313,427.591 483.363,373.543 C474.802,363.899 457.893,364.777 449.832,360.446 L426.179,408.798 L400.682,360.479 L400.682,360.482 L400.682,360.482 Z" id="Shape" fill="#FF5B61"></path>
                <path d="M387.572,248.752 C405.383,236.811 448.747,237.324 464.64,249.389 L466.28,269.363 C438.554,262.12 414.094,262.491 385.742,269.817 L387.572,248.754 L387.572,248.752 L387.572,248.752 Z" id="Shape" fill="#807D7D"></path>
                <g id="Group" transform="translate(372.000000, 237.000000)" fill="#FFFFFF">
                    <path d="M39.843,144.602 C47.205,147.224 59.724,147.237 67.487,144.591 L54.179,171.801 L39.843,144.602 L39.843,144.602 Z" id="Shape"></path>
                    <path d="M2.319,1.766 L2.431,35.798 L2.431,36.852 L0.407,36.852 L0.407,35.798 L0.407,2.412 C0.48,0.459 2.184,0.19 2.321,1.764 L2.319,1.766 L2.319,1.766 Z" id="Shape"></path>
                </g>
                <path d="M369.698,279.013 C369.698,288.209 367.767,296.122 367.661,296.652 C367.553,297.179 369.412,298.912 369.769,297.179 C370.128,295.446 369.734,297.216 371.379,297.329 C372.995,297.441 373.335,296.637 373.344,296.612 C373.353,296.636 373.692,297.439 375.313,297.329 C376.953,297.217 376.561,295.446 376.923,297.179 C377.278,298.912 379.132,297.179 379.029,296.652 C378.921,296.123 376.994,288.212 376.994,279.013 C376.908,275.494 375.526,273.829 373.345,273.322 C371.16,273.829 369.784,275.494 369.698,279.013 L369.698,279.013 Z" id="Shape" fill="#FF5B61"></path>
                <path d="M373.342,273.32 C376.956,273.32 377.064,275.615 376.879,277.741 C376.085,277.049 374.795,276.599 373.342,276.599 C371.889,276.599 370.604,277.049 369.805,277.741 C369.678,275.274 369.729,273.32 373.342,273.32 L373.342,273.32 Z" id="Shape" fill="#807D7D"></path>
                <g id="Group" transform="translate(119.000000, 63.000000)" fill="#666666">
                    <polygon id="Shape" points="0.667 62.243 146.007 128.223 282.817 66.117 137.477 0.137"></polygon>
                    <path d="M41.188,291.72 C55.478,267.703 77.993,239.825 55.125,197.446 C21.463,50.273 176.589,20.433 200.044,81.172 C238.21,95.565 237.195,174.787 217.566,216.242 C216.693,233.301 198.953,248.179 231.007,292.194 L233.315,291.689 L233.313,291.691 C191.732,303.738 85.15,298.191 41.19,291.72 L41.188,291.72 L41.188,291.72 Z" id="Shape"></path>
                </g>
                <path d="M231.494,323.703 C230.065,350.06 220.71,360.01 207.739,366.94 C201.14,372.77 151.472,374.335 136.957,397.777 C135.363,400.352 123.96,441.922 118.406,471.915 C158.146,497.289 205.352,512 255.997,512 C307.855,512 356.099,496.566 396.418,470.062 C391.016,438.782 386.282,401.011 384.278,397.777 C368.95,373.019 316.759,372.732 310.689,367.672 C298.002,360.572 288.89,350.128 287.474,323.703 C287.474,323.703 268.512,338.409 256.723,336.145 C244.937,333.882 231.494,323.703 231.494,323.703 L231.494,323.703 Z" id="Shape" fill="#F0B97D"></path>
                <path d="M200.944,280.475 C212.641,305.522 216.967,315.305 231.494,326.563 C231.494,326.563 244.937,336.939 256.724,339.247 C268.513,341.555 287.475,326.563 287.475,326.563 C302.003,315.305 306.326,305.524 318.023,280.475 C320.889,282.001 323.888,284.071 326.214,281.403 C328.542,278.735 339.622,244.082 337.628,239.408 C335.633,234.732 333.69,237.712 330.72,239.829 C330.877,238.821 328.374,252.352 328.409,250.295 C328.689,233.94 317.193,231.34 313.588,188.059 C260.573,240.655 211.05,216.521 193.795,220.04 C188.794,221.061 187.328,233.862 188.25,239.828 C169.538,226.473 192.278,280.858 192.754,281.402 C195.084,284.071 198.078,282.001 200.944,280.475 L200.944,280.475 Z" id="Shape" fill="#FED198"></path>
                <path d="M207.735,366.926 C189.916,376.446 155.877,365.339 135.553,398.162 C134.316,400.162 125.45,439.985 116.706,470.805 C156.794,496.855 204.624,511.998 255.996,511.998 C310.824,511.998 361.621,494.754 403.275,465.403 C394.784,434.917 386.088,400.696 384.28,397.774 C363.903,364.856 328.928,376.433 311.088,366.856 L261.35,468.529 L207.737,366.924 L207.735,366.926 L207.735,366.926 Z" id="Shape" fill="#0E7886"></path>
                <path d="M180.168,131.986 C217.617,106.882 308.807,107.958 342.223,133.333 L345.674,175.331 C287.367,160.102 235.933,160.881 176.321,176.279 L180.171,131.988 L180.168,131.986 L180.168,131.986 Z" id="Shape" fill="#807D7D"></path>
                <path d="M231.208,411.338 C246.679,416.857 273.007,416.89 289.336,411.318 L261.346,468.536 L231.206,411.338 L231.208,411.338 L231.208,411.338 Z" id="Shape" fill="#20D0C2"></path>
                <path d="M152.299,110.989 L152.533,182.551 L152.533,184.767 L148.275,184.767 L148.275,182.551 L148.275,112.345 C148.421,108.244 152.012,107.68 152.299,110.987 L152.299,110.989 L152.299,110.989 Z" id="Shape" fill="#FFFFFF"></path>
                <path d="M142.576,195.617 C142.576,214.956 138.519,231.598 138.294,232.707 C138.067,233.818 141.974,237.463 142.728,233.818 C143.48,230.169 142.653,233.895 146.11,234.133 C149.512,234.367 150.222,232.682 150.244,232.627 C150.266,232.682 150.978,234.367 154.378,234.133 C157.835,233.897 157.008,230.171 157.762,233.818 C158.514,237.463 162.419,233.818 162.196,232.707 C161.969,231.598 157.912,214.956 157.912,195.617 C157.731,188.213 154.83,184.721 150.244,183.654 C145.658,184.721 142.759,188.213 142.576,195.617 L142.576,195.617 Z" id="Shape" fill="#FF5B61"></path>
                <path d="M150.242,183.654 C157.842,183.654 158.065,188.48 157.677,192.95 C156.004,191.495 153.298,190.551 150.242,190.551 C147.186,190.551 144.481,191.497 142.807,192.95 C142.538,187.759 142.644,183.654 150.242,183.654 L150.242,183.654 Z" id="Shape" fill="#807D7D"></path>
            </g>
        </g>
    </g>
</svg>