<?xml version="1.0" encoding="UTF-8" standalone="no"?>
<svg width="512px" height="512px" viewBox="0 0 512 512" version="1.1" xmlns="http://www.w3.org/2000/svg" xmlns:xlink="http://www.w3.org/1999/xlink">
    <!-- Generator: Sketch 41 (35326) - http://www.bohemiancoding.com/sketch -->
    <title>test</title>
    <desc>Created with Sketch.</desc>
    <defs></defs>
    <g id="Page-1" stroke="none" stroke-width="1" fill="none" fill-rule="evenodd">
        <g id="Artboard-Copy-6" transform="translate(-962.000000, -448.000000)">
            <g id="test" transform="translate(962.000000, 448.000000)">
                <g id="Layer_1">
                    <path d="M256.001,512 C397,512 512,397 512,255.999 C512,114.999 397,0 256.001,0 C115.001,0 0,114.999 0,255.999 C0,397 115.001,512 256.001,512 L256.001,512 Z" id="Shape" fill="#5DDDD3"></path>
                    <polygon id="Shape" fill="#FFFFFF" points="117.584 71.673 394.415 71.673 394.415 383.105 337.195 440.324 117.584 440.324"></polygon>
                    <polygon id="Shape" fill="#FBB429" points="337.195 383.105 394.415 383.105 337.195 440.324 337.195 383.105"></polygon>
                    <path d="M151.847,181.623 L353.647,181.623 L353.647,184.617 L151.847,184.617 L151.847,181.623 L151.847,181.623 Z M151.847,354.178 L151.847,354.178 L244.174,354.178 L244.174,357.172 L151.847,357.172 L151.847,354.178 L151.847,354.178 Z M151.847,338.199 L151.847,338.199 L353.647,338.199 L353.647,341.192 L151.847,341.192 L151.847,338.199 L151.847,338.199 Z M151.847,318.628 L151.847,318.628 L353.647,318.628 L353.647,321.621 L151.847,321.621 L151.847,318.628 L151.847,318.628 Z M151.847,299.055 L151.847,299.055 L353.647,299.055 L353.647,302.048 L151.847,302.048 L151.847,299.055 L151.847,299.055 Z M151.847,279.484 L151.847,279.484 L353.647,279.484 L353.647,282.477 L151.847,282.477 L151.847,279.484 L151.847,279.484 Z M151.847,259.911 L151.847,259.911 L353.647,259.911 L353.647,262.904 L151.847,262.904 L151.847,259.911 L151.847,259.911 Z M151.847,240.341 L151.847,240.341 L353.647,240.341 L353.647,243.333 L151.847,243.333 L151.847,240.341 L151.847,240.341 Z M151.847,220.767 L151.847,220.767 L353.647,220.767 L353.647,223.761 L151.847,223.761 L151.847,220.767 L151.847,220.767 Z M151.847,201.197 L151.847,201.197 L353.647,201.197 L353.647,204.191 L151.847,204.191 L151.847,201.197 L151.847,201.197 Z" id="Shape" fill="#C8CACC"></path>
                    <g id="Group" transform="translate(151.000000, 43.000000)">
                        <path d="M44.812,123.138 C44.13,123.138 43.531,123.005 43.016,122.755 C42.5,122.487 42.068,122.156 41.718,121.722 C41.386,121.307 41.119,120.824 40.936,120.259 C40.77,119.711 40.67,119.162 40.67,118.612 C40.67,118.113 40.802,117.449 41.07,116.582 C41.32,115.718 41.651,114.754 42.068,113.687 C42.466,112.606 42.916,111.492 43.398,110.329 C43.897,109.147 44.363,108.034 44.813,106.97 C45.279,105.888 45.662,104.891 45.978,103.992 C46.31,103.075 46.543,102.361 46.676,101.845 C46.792,101.261 46.959,100.564 47.159,99.749 C47.358,98.934 47.574,98.053 47.807,97.086 C48.057,96.138 48.306,95.123 48.538,94.076 C48.788,93.013 49.037,91.947 49.304,90.883 C48.837,90.983 48.288,91.067 47.624,91.151 C46.958,91.232 46.242,91.301 45.494,91.367 C44.43,91.467 43.365,91.617 42.334,91.799 C41.286,91.998 40.222,92.216 39.141,92.466 C38.044,92.715 36.929,92.965 35.747,93.248 C34.584,93.514 33.335,93.814 32.004,94.094 C30.058,94.527 28.095,94.992 26.149,95.51 C24.203,96.024 22.174,96.29 20.062,96.29 C19.412,96.29 18.814,96.124 18.247,95.775 C17.699,95.441 17.085,95.194 16.401,95.027 C15.753,96.06 15.139,97.172 14.555,98.355 C13.974,99.553 13.425,100.766 12.942,102.013 C12.459,103.261 12.01,104.508 11.628,105.723 C11.246,106.938 10.896,108.086 10.612,109.15 C10.447,109.749 10.297,110.497 10.198,111.43 C10.081,112.343 9.963,113.292 9.882,114.257 C9.782,115.207 9.682,116.122 9.583,117.003 C9.483,117.882 9.383,118.581 9.284,119.099 C9.2,119.58 9.001,120.063 8.702,120.528 C8.418,121.011 8.052,121.443 7.636,121.826 C7.204,122.224 6.738,122.543 6.221,122.774 C5.707,123.024 5.173,123.142 4.659,123.142 C3.743,123.142 3.012,122.874 2.447,122.342 C1.88,121.812 1.416,121.144 1.082,120.348 C0.732,119.55 0.501,118.684 0.368,117.735 C0.234,116.787 0.184,115.939 0.184,115.157 C0.184,113.179 0.417,111.115 0.917,108.987 C1.399,106.857 2.047,104.695 2.879,102.516 C3.711,100.32 4.693,98.109 5.807,95.879 C6.921,93.65 8.136,91.439 9.434,89.227 C10.514,87.247 11.846,84.95 13.425,82.356 C15.022,79.762 16.801,77.085 18.765,74.338 C20.728,71.594 22.856,68.899 25.153,66.272 C27.448,63.643 29.826,61.298 32.288,59.236 C34.766,57.174 37.295,55.51 39.89,54.246 C42.501,52.965 45.08,52.332 47.64,52.332 C50.335,52.332 52.58,52.833 54.394,53.797 C56.19,54.779 57.638,56.092 58.702,57.755 C59.783,59.402 60.531,61.331 60.963,63.543 C61.412,65.755 61.629,68.102 61.629,70.564 C61.629,72.744 61.496,74.989 61.213,77.283 C60.931,79.597 60.598,81.858 60.183,84.069 C59.783,86.265 59.351,88.394 58.868,90.44 C58.404,92.486 57.97,94.349 57.588,95.995 L55.874,102.631 C55.808,102.833 55.693,103.213 55.509,103.797 C55.343,104.378 55.111,105.095 54.827,105.925 C54.562,106.742 54.246,107.64 53.914,108.603 C53.564,109.552 53.23,110.5 52.881,111.432 C52.55,112.345 52.216,113.211 51.9,113.977 C51.601,114.76 51.334,115.39 51.102,115.889 L51.152,115.839 C50.92,116.687 50.685,117.535 50.42,118.418 C50.155,119.3 49.805,120.08 49.356,120.779 C48.889,121.477 48.308,122.043 47.593,122.492 C46.875,122.92 45.96,123.138 44.812,123.138 L44.812,123.138 L44.812,123.138 Z M47.307,62.126 L47.307,62.126 C45.842,62.126 44.379,62.425 42.932,63.024 C41.486,63.638 40.071,64.421 38.674,65.403 C37.277,66.367 35.911,67.499 34.599,68.812 C33.285,70.11 32.038,71.439 30.856,72.804 C29.674,74.167 28.56,75.531 27.512,76.912 C26.479,78.294 25.532,79.572 24.683,80.738 C24.552,80.938 24.384,81.187 24.169,81.502 C23.97,81.801 23.753,82.152 23.536,82.517 C23.336,82.9 23.121,83.283 22.937,83.698 C22.737,84.098 22.572,84.463 22.437,84.795 L27.462,84.795 C29.291,84.795 31.37,84.662 33.7,84.397 C36.045,84.132 38.356,83.832 40.651,83.465 C42.931,83.116 45.043,82.751 46.956,82.385 C48.869,82.002 50.317,81.72 51.297,81.519 C51.429,81.104 51.547,80.539 51.664,79.823 C51.78,79.108 51.879,78.31 51.979,77.428 C52.079,76.547 52.146,75.615 52.196,74.633 C52.247,73.637 52.263,72.621 52.263,71.59 C52.263,70.741 52.229,69.777 52.178,68.68 C52.113,67.598 51.913,66.568 51.579,65.586 C51.264,64.622 50.766,63.79 50.1,63.125 C49.435,62.457 48.504,62.125 47.307,62.126 L47.307,62.126 L47.307,62.126 Z M96.042,91.068 L96.042,91.068 C94.181,99.817 93.266,105.589 93.266,108.416 C93.266,109.332 92.684,110.08 91.536,110.661 C90.373,111.243 89.224,111.543 88.043,111.543 C86.745,111.543 85.697,111.212 84.883,110.563 C84.066,109.912 83.668,109.098 83.668,108.134 C83.668,104.657 84.584,99.068 86.446,91.367 C81.855,91.467 77.897,91.698 74.553,92.049 C72.607,92.247 71.276,92.348 70.592,92.348 C68.746,92.348 67.832,90.718 67.832,87.474 C67.832,86.21 68.73,85.194 70.527,84.446 C72.323,83.698 78.376,83.248 88.674,83.083 C91.934,72.07 93.996,65.899 94.862,64.585 C95.741,63.272 97.024,62.623 98.72,62.623 C101.38,62.623 102.712,63.254 102.712,64.52 C102.712,65.2 102.477,66.231 101.979,67.63 C101.498,69.027 100.117,74.085 97.837,82.784 C103.975,82.6 109.033,82.5 112.991,82.5 C115.536,82.5 116.8,83.764 116.8,86.292 C116.8,89.286 114.938,90.783 111.195,90.783 C106.969,90.783 101.914,90.883 96.042,91.068 L96.042,91.068 L96.042,91.068 Z" id="Shape" fill="#7C7C7C"></path>
                        <polygon id="Shape" fill="#FFBA1B" points="185.711 168.293 306.541 14.771 288.758 0.777 167.928 154.298"></polygon>
                    </g>
                    <polygon id="Shape" fill="#15BDB1" points="406.18 123.027 409.673 118.59 391.916 104.564 388.422 109.002 406.18 123.027"></polygon>
                    <polygon id="Shape" fill="#FF5B61" points="315.073 227.368 336.709 211.292 318.928 197.299 308.442 222.149"></polygon>
                    <polygon id="Shape" fill="#EC4B53" points="315.091 227.349 336.709 211.292 332.855 208.258 313.791 226.36 315.091 227.349"></polygon>
                    <path d="M455.198,31.667 L465.681,39.918 C468.563,42.186 468.898,46.614 466.424,49.758 L410.252,121.128 L389.287,104.627 L445.459,33.257 C447.933,30.114 452.315,29.398 455.198,31.667 L455.198,31.667 L455.198,31.667 Z" id="Shape" fill="#FF5B61"></path>
                    <path d="M464.542,48.276 L457.249,57.543 L439.307,80.335 L408.368,119.646 L408.66,119.875 L410.25,121.128 L440.322,82.921 L466.422,49.758 C468.896,46.614 468.561,42.186 465.681,39.915 L465.182,39.525 C466.81,42.044 466.645,45.603 464.542,48.276 L464.542,48.276 L464.542,48.276 Z" id="Shape" fill="#EC4B53"></path>
                    <polygon id="Shape" fill="#666666" points="299.865 239.08 300.606 239.665 315.073 227.368 308.441 222.15"></polygon>
                    <path d="M437.897,42.858 L462.297,62.294 C463.031,63.059 463.1,63.857 462.474,64.652 L429.846,106.109 L428.997,106.711 L424.778,108.171 C422.728,108.778 421.535,106.135 423.954,104.98 L427.655,103.698 L458.877,64.029 L435.728,45.593 L437.897,42.858 L437.897,42.858 L437.897,42.858 Z" id="Shape" fill="#FFFFFF"></path>
                    <polygon id="Shape" fill="#15BDB1" points="335.236 210.132 336.711 211.293 406.185 123.021 404.712 121.862"></polygon>
                    <polygon id="Shape" fill="#20D0C2" points="162.781 434.379 191.796 434.379 191.795 509.586 177.289 498.213 162.781 509.586 162.781 434.379"></polygon>
                    <path d="M188.185,377.027 L188.843,377.262 C190.076,374.981 192.599,373.547 195.343,373.834 C198.965,374.213 201.594,377.463 201.212,381.083 C201.091,382.243 200.674,383.3 200.047,384.19 C200.218,384.348 200.384,384.509 200.551,384.67 C202.606,383.081 205.501,382.795 207.889,384.176 C211.046,385.995 212.124,390.034 210.304,393.187 C209.722,394.192 208.915,394.988 207.984,395.546 C208.075,395.761 208.164,395.975 208.25,396.193 C210.77,395.581 213.526,396.496 215.146,398.726 C217.289,401.674 216.631,405.8 213.687,407.942 C212.744,408.627 211.682,409.025 210.601,409.155 L210.582,409.852 C213.136,410.316 215.283,412.273 215.857,414.972 C216.616,418.536 214.339,422.039 210.777,422.798 C209.641,423.04 208.51,422.971 207.472,422.651 L207.169,423.283 C209.31,424.746 210.473,427.406 209.9,430.102 C209.144,433.666 205.636,435.94 202.075,435.185 C200.936,434.942 199.927,434.42 199.108,433.702 C198.934,433.855 198.757,434.006 198.578,434.155 C199.943,436.364 199.925,439.27 198.302,441.501 C196.163,444.45 192.036,445.103 189.089,442.961 C188.15,442.279 187.442,441.393 186.984,440.408 C186.762,440.478 186.539,440.543 186.313,440.606 C186.658,443.176 185.461,445.821 183.073,447.199 C179.917,449.02 175.883,447.938 174.062,444.785 C173.481,443.778 173.196,442.681 173.18,441.593 C172.947,441.565 172.717,441.534 172.487,441.5 C171.755,443.993 169.584,445.92 166.843,446.209 C163.221,446.588 159.972,443.959 159.593,440.338 C159.472,439.182 159.658,438.062 160.085,437.061 C159.886,436.942 159.688,436.818 159.492,436.695 C157.812,438.676 155.041,439.555 152.418,438.701 C148.952,437.578 147.057,433.855 148.183,430.391 C148.544,429.282 149.17,428.334 149.968,427.596 C149.834,427.405 149.702,427.213 149.573,427.02 C147.233,428.147 144.345,427.825 142.294,425.977 C139.586,423.542 139.369,419.37 141.807,416.663 C142.585,415.797 143.541,415.188 144.568,414.835 C144.524,414.608 144.483,414.378 144.445,414.149 C141.849,414.224 139.342,412.757 138.222,410.236 C136.739,406.908 138.236,403.008 141.565,401.529 C142.627,401.054 143.747,400.885 144.829,400.983 L144.994,400.303 C142.592,399.315 140.903,396.955 140.903,394.198 C140.903,390.556 143.856,387.602 147.499,387.602 C148.665,387.602 149.759,387.906 150.71,388.435 C150.849,388.25 150.992,388.065 151.137,387.882 C149.343,386.005 148.756,383.159 149.878,380.637 C151.358,377.308 155.26,375.812 158.587,377.294 C159.649,377.767 160.524,378.488 161.177,379.356 C161.382,379.244 161.586,379.133 161.792,379.025 C160.92,376.581 161.541,373.744 163.592,371.898 C166.296,369.46 170.472,369.681 172.905,372.388 C173.685,373.252 174.193,374.268 174.435,375.328 C174.666,375.31 174.898,375.29 175.13,375.276 C175.326,372.687 177.047,370.345 179.673,369.494 C183.137,368.367 186.86,370.266 187.984,373.728 C188.343,374.831 188.393,375.963 188.185,377.027 L188.185,377.027 L188.185,377.027 Z" id="Shape" fill="#FF5B61"></path>
                    <path d="M177.028,438.918 C193.713,438.918 207.322,425.309 207.322,408.623 C207.322,391.938 193.713,378.329 177.028,378.329 C160.342,378.329 146.733,391.938 146.733,408.623 C146.733,425.31 160.342,438.918 177.028,438.918 L177.028,438.918 Z" id="Shape" fill="#FFFFFF"></path>
                    <path d="M177.027,435.565 C191.864,435.565 203.969,423.462 203.969,408.622 C203.969,393.785 191.865,381.682 177.027,381.682 C162.188,381.682 150.085,393.785 150.085,408.622 C150.085,423.462 162.188,435.565 177.027,435.565 L177.027,435.565 Z" id="Shape" fill="#FBB429"></path>
                    <polygon id="Shape" fill="#FFFFFF" points="177.028 388.454 181.518 403.132 196.139 403.103 184.294 412.143 188.839 426.801 177.028 417.713 165.216 426.801 169.759 412.143 157.916 403.103 172.537 403.132 177.028 388.454"></polygon>
                </g>
            </g>
        </g>
    </g>
</svg>