<?xml version="1.0" encoding="UTF-8" standalone="no"?>
<svg width="126px" height="80px" viewBox="0 0 126 80" version="1.1" xmlns="http://www.w3.org/2000/svg" xmlns:xlink="http://www.w3.org/1999/xlink">
    <!-- Generator: Sketch 41 (35326) - http://www.bohemiancoding.com/sketch -->
    <title>black-graduation-cap-tool-of-university-student-for-head</title>
    <desc>Created with Sketch.</desc>
    <defs></defs>
    <g id="Page-1" stroke="none" stroke-width="1" fill="none" fill-rule="evenodd">
        <g id="Artboard" transform="translate(-597.000000, -457.000000)" fill="#ECCA6F">
            <g id="Group-3" transform="translate(596.000000, 306.000000)">
                <g id="Group-4" transform="translate(0.000000, 150.000000)">
                    <g id="black-graduation-cap-tool-of-university-student-for-head" transform="translate(63.917056, 40.600000) scale(-1, 1) translate(-63.917056, -40.600000) translate(0.917056, 0.600000)">
                        <g id="Capa_1">
                            <g id="Group">
                                <path d="M27.3681703,44.9941875 L27.3681703,64.7368125 C27.3681703,64.7368125 46.2959842,56.85 63.0782785,56.85 C79.8605728,56.85 98.7923235,64.7368125 98.7923235,64.7368125 L98.7923235,44.7185625 C98.7923235,44.7185625 80.7345276,35.1661875 62.7987704,35.1661875 C44.8708868,35.1583125 27.3681703,44.9941875 27.3681703,44.9941875 L27.3681703,44.9941875 Z" id="Shape"></path>
                                <path d="M118.842106,40.2928125 L125.943973,36.4734375 L118.842106,32.539875 L118.842106,30.6735 C118.842106,30.6735 120.841967,20.5305 109.476618,25.8343125 C108.897918,26.1493125 108.586916,26.46825 108.460941,26.7793125 L61.5901933,0.78 L1.13686838e-13,36.036375 L23.2582206,46.604625 L23.2582206,43.1750625 C23.2582206,43.1750625 42.7726079,32.217 62.77515,32.217 C82.7737555,32.217 102.902273,42.8679375 102.902273,42.8679375 L102.902273,48.856875 L115.743897,41.958375 L115.743897,69.8870625 L111.468605,69.8870625 L111.468605,79.8135 L117.153248,75.883875 L123.463831,79.8135 L123.463831,69.883125 L118.842106,69.883125 L118.842106,40.2928125 L118.842106,40.2928125 L118.842106,40.2928125 Z M115.739961,28.948875 L115.739961,30.8191875 L111.99219,28.7401875 C113.358237,27.8345625 115.739961,26.5785 115.739961,28.948875 L115.739961,28.948875 Z M114.472332,39.903 C112.814968,39.903 111.464668,38.5603125 111.464668,36.902625 C111.464668,35.2449375 112.814968,33.8983125 114.472332,33.8983125 C116.133634,33.8983125 117.47606,35.2449375 117.47606,36.902625 C117.47606,38.5603125 116.133634,39.903 114.472332,39.903 L114.472332,39.903 Z" id="Shape"></path>
                            </g>
                        </g>
                    </g>
                </g>
            </g>
        </g>
    </g>
</svg>