<?xml version="1.0" encoding="UTF-8" standalone="no"?>
<svg width="512px" height="512px" viewBox="0 0 512 512" version="1.1" xmlns="http://www.w3.org/2000/svg" xmlns:xlink="http://www.w3.org/1999/xlink">
    <!-- Generator: Sketch 41 (35326) - http://www.bohemiancoding.com/sketch -->
    <title>owl</title>
    <desc>Created with Sketch.</desc>
    <defs></defs>
    <g id="Page-1" stroke="none" stroke-width="1" fill="none" fill-rule="evenodd">
        <g id="owl">
            <g id="Layer_1">
                <path d="M256,0.001 C397.385,0.001 512,114.616 512,255.998 C512,397.383 397.385,511.998 256,511.998 C114.612,511.998 0,397.383 0,255.998 C0,114.616 114.615,0.001 256,0.001 L256,0.001 Z" id="Shape" fill="#5DDDD3"></path>
                <polygon id="Shape" fill="#FFBA1B" points="488.181 455.237 411.642 435.187 411.642 475.332"></polygon>
                <path d="M411.641,446.927 C416.853,452.396 417.322,457.944 411.641,463.591 L52.334,463.591 L52.334,446.927 L411.641,446.927 L411.641,446.927 Z" id="Shape" fill="#FF5B61"></path>
                <path d="M411.641,446.927 C416.711,443.341 417.225,439.457 411.641,435.186 L52.334,435.186 L52.334,446.927 L411.641,446.927 L411.641,446.927 Z" id="Shape" fill="#EC4B53"></path>
                <polygon id="Shape" fill="#ECF0F1" points="52.337 475.332 52.337 435.187 40.99 435.187 40.99 475.332"></polygon>
                <path d="M18.293,463.987 L18.293,446.531 C18.293,440.291 23.4,435.186 29.64,435.186 L40.987,435.186 L40.987,475.331 L29.64,475.331 C23.4,475.332 18.293,470.225 18.293,463.987 L18.293,463.987 Z" id="Shape" fill="#20D0C2"></path>
                <polygon id="Shape" fill="#666666" points="493.71 456.06 493.71 454.387 459.485 447.711 459.485 462.683"></polygon>
                <path d="M411.641,463.591 C416.711,467.177 417.225,471.059 411.641,475.332 L52.334,475.332 L52.334,463.591 L411.641,463.591 L411.641,463.591 Z" id="Shape" fill="#EC4B53"></path>
                <path d="M255.932,447.966 C190.388,422.549 155.715,344.108 160.263,278.289 C164.011,224.108 194.341,178.476 255.932,177.998 C317.52,178.475 347.853,224.108 351.601,278.289 C356.152,344.108 321.475,422.549 255.932,447.966 L255.932,447.966 Z" id="Shape" fill="#FFBA1B"></path>
                <g id="Group" transform="translate(178.000000, 178.000000)" fill="#F5A209">
                    <path d="M0.136,41.222 C15.087,17.471 39.455,1.442 74.131,0.093 C69.092,25.562 46.634,44.768 19.688,44.768 C12.805,44.768 6.216,43.512 0.133,41.222 L0.136,41.222 L0.136,41.222 Z" id="Shape"></path>
                    <path d="M81.733,0.093 C116.409,1.441 140.777,17.47 155.728,41.222 C149.648,43.512 143.059,44.768 136.173,44.768 C109.227,44.768 86.769,25.562 81.73,0.093 L81.733,0.093 L81.733,0.093 Z" id="Shape"></path>
                </g>
                <path d="M197.688,212.473 C228.259,212.473 253.188,187.541 253.188,156.97 C253.188,126.399 228.256,101.47 197.688,101.47 C167.117,101.47 142.185,126.402 142.185,156.97 C142.185,187.541 167.117,212.473 197.688,212.473 L197.688,212.473 Z" id="Shape" fill="#0E7886"></path>
                <path d="M197.688,203.192 C223.147,203.192 243.911,182.428 243.911,156.969 C243.911,131.51 223.147,110.746 197.688,110.746 C172.229,110.746 151.465,131.51 151.465,156.969 C151.465,182.428 172.226,203.192 197.688,203.192 L197.688,203.192 Z" id="Shape" fill="#FFFFFF"></path>
                <path d="M151.68,152.526 C151.541,153.987 151.468,155.472 151.468,156.969 C151.468,182.496 172.164,203.192 197.691,203.192 C223.215,203.192 243.914,182.496 243.914,156.969 C243.914,155.471 243.838,153.987 243.702,152.526 C241.465,175.965 221.719,194.303 197.695,194.303 C173.668,194.303 153.922,175.966 151.685,152.526 L151.68,152.526 L151.68,152.526 Z" id="Shape" fill="#ECF0F1"></path>
                <path d="M314.173,212.473 C344.744,212.473 369.676,187.541 369.676,156.97 C369.676,126.399 344.742,101.47 314.173,101.47 C283.604,101.47 258.67,126.402 258.67,156.97 C258.67,187.541 283.604,212.473 314.173,212.473 L314.173,212.473 Z" id="Shape" fill="#0E7886"></path>
                <path d="M205.478,176.522 C219.697,176.522 231.296,164.923 231.296,150.704 C231.296,136.485 219.697,124.888 205.478,124.888 C191.259,124.888 179.662,136.487 179.662,150.704 C179.663,164.923 191.259,176.522 205.478,176.522 L205.478,176.522 Z" id="Shape" fill="#15BDB1"></path>
                <path d="M314.176,203.192 C339.635,203.192 360.399,182.428 360.399,156.969 C360.399,131.51 339.635,110.746 314.176,110.746 C288.717,110.746 267.953,131.51 267.953,156.969 C267.953,182.428 288.717,203.192 314.176,203.192 L314.176,203.192 Z" id="Shape" fill="#FFFFFF"></path>
                <path d="M268.165,152.526 C268.026,153.987 267.953,155.472 267.953,156.969 C267.953,182.496 288.648,203.192 314.176,203.192 C339.703,203.192 360.399,182.496 360.399,156.969 C360.399,155.471 360.326,153.987 360.187,152.526 C357.95,175.965 338.206,194.303 314.177,194.303 C290.153,194.303 270.407,175.966 268.169,152.526 L268.165,152.526 L268.165,152.526 Z" id="Shape" fill="#ECF0F1"></path>
                <path d="M205.478,172.608 C217.544,172.608 227.383,162.769 227.383,150.703 C227.383,138.637 217.544,128.801 205.478,128.801 C193.415,128.801 183.576,138.64 183.576,150.703 C183.576,162.769 193.415,172.608 205.478,172.608 L205.478,172.608 Z" id="Shape" fill="#20D0C2"></path>
                <path d="M205.478,161.502 C211.427,161.502 216.274,156.652 216.274,150.706 C216.274,144.76 211.424,139.91 205.478,139.91 C199.532,139.91 194.682,144.76 194.682,150.706 C194.682,156.655 199.532,161.502 205.478,161.502 L205.478,161.502 Z" id="Shape" fill="#666666"></path>
                <path d="M306.385,176.522 C320.604,176.522 332.201,164.923 332.201,150.704 C332.201,136.485 320.602,124.888 306.385,124.888 C292.166,124.888 280.567,136.487 280.567,150.704 C280.567,164.923 292.166,176.522 306.385,176.522 L306.385,176.522 Z" id="Shape" fill="#15BDB1"></path>
                <path d="M306.385,172.608 C318.451,172.608 328.287,162.769 328.287,150.703 C328.287,138.637 318.448,128.801 306.385,128.801 C294.319,128.801 284.48,138.64 284.48,150.703 C284.481,162.769 294.319,172.608 306.385,172.608 L306.385,172.608 Z" id="Shape" fill="#20D0C2"></path>
                <path d="M306.385,161.502 C312.331,161.502 317.181,156.652 317.181,150.706 C317.181,144.76 312.331,139.91 306.385,139.91 C300.436,139.91 295.589,144.76 295.589,150.706 C295.589,156.655 300.439,161.502 306.385,161.502 L306.385,161.502 Z" id="Shape" fill="#666666"></path>
                <path d="M255.932,79.644 C255.932,61.545 315.789,96.384 354.245,57.039 C349.099,177.293 292.623,22.953 255.932,177.996 C219.247,22.953 162.765,177.29 157.622,57.039 C196.075,96.384 255.932,61.545 255.932,79.644 L255.932,79.644 Z" id="Shape" fill="#0E7886"></path>
                <path d="M349.353,92.68 C333.864,140.529 287.55,59.848 255.929,193.466 C224.311,59.845 177.997,140.529 162.505,92.68 C187.893,102.939 237.263,86.791 255.929,156.967 C275.027,85.697 323.965,102.939 349.353,92.68 L349.353,92.68 Z" id="Shape" fill="#FFBA1B"></path>
                <path d="M335.377,221.695 C336.956,226.322 338.113,389.52 279.675,435.546 C315.238,425.704 434.8,295.255 335.377,221.695 L335.377,221.695 Z" id="Shape" fill="#0E7886"></path>
                <polygon id="Shape" fill="#FF5B61" points="255.929 159.677 239.638 176.286 255.929 209.425 255.929 159.674"></polygon>
                <polygon id="Shape" fill="#EC4B53" points="255.929 159.677 272.22 176.286 255.929 209.425 255.929 159.674 255.929 159.677"></polygon>
                <path d="M176.625,221.695 C175.043,226.322 173.887,389.52 232.327,435.546 C196.765,425.704 77.203,295.255 176.625,221.695 L176.625,221.695 Z" id="Shape" fill="#0E7886"></path>
                <path d="M279.305,421.23 C282.849,421.23 285.944,423.386 287.609,426.597 C289.275,423.389 292.37,421.23 295.913,421.23 C299.457,421.23 302.552,423.386 304.217,426.597 C305.883,423.389 308.978,421.23 312.521,421.23 C317.827,421.23 322.129,426.067 322.129,432.032 C322.129,437.994 317.827,442.831 312.521,442.831 C308.977,442.831 305.882,440.675 304.217,437.464 C302.551,440.672 299.456,442.831 295.913,442.831 C292.369,442.831 289.274,440.675 287.609,437.464 C285.943,440.672 282.846,442.831 279.305,442.831 C273.996,442.831 269.697,437.994 269.697,432.032 C269.697,426.066 273.996,421.23 279.305,421.23 L279.305,421.23 Z" id="Shape" fill="#FFFFFF"></path>
                <path d="M274.282,442.904 C276.459,450.141 279.594,456.832 279.594,456.832 C279.594,456.832 284.473,448.976 284.273,443.03 C283.911,432.257 272.102,435.665 274.282,442.901 L274.282,442.904 L274.282,442.904 Z M307.799,442.904 L307.799,442.904 C309.234,450.141 311.684,456.832 311.684,456.832 C311.684,456.832 317.368,448.976 317.78,443.03 C318.522,432.257 306.367,435.665 307.799,442.901 L307.799,442.904 L307.799,442.904 Z M291.56,442.904 L291.56,442.904 C293.06,450.141 295.565,456.832 295.565,456.832 C295.565,456.832 301.181,448.976 301.54,443.03 C302.193,432.257 290.064,435.665 291.559,442.901 L291.559,442.904 L291.56,442.904 Z" id="Shape" fill="#666666"></path>
                <path d="M232.002,421.23 C228.458,421.23 225.363,423.386 223.698,426.597 C222.032,423.389 218.937,421.23 215.394,421.23 C211.85,421.23 208.755,423.386 207.09,426.597 C205.424,423.389 202.329,421.23 198.786,421.23 C193.48,421.23 189.178,426.067 189.178,432.032 C189.178,437.994 193.48,442.831 198.786,442.831 C202.33,442.831 205.425,440.675 207.09,437.464 C208.756,440.672 211.851,442.831 215.394,442.831 C218.938,442.831 222.033,440.675 223.698,437.464 C225.364,440.672 228.461,442.831 232.002,442.831 C237.311,442.831 241.61,437.994 241.61,432.032 C241.61,426.066 237.311,421.23 232.002,421.23 L232.002,421.23 Z" id="Shape" fill="#FFFFFF"></path>
                <path d="M237.025,442.904 C234.848,450.141 231.713,456.832 231.713,456.832 C231.713,456.832 226.834,448.976 227.034,443.03 C227.396,432.257 239.205,435.665 237.025,442.901 L237.025,442.904 L237.025,442.904 Z M203.508,442.904 L203.508,442.904 C202.073,450.141 199.623,456.832 199.623,456.832 C199.623,456.832 193.939,448.976 193.527,443.03 C192.785,432.257 204.94,435.665 203.508,442.901 L203.508,442.904 L203.508,442.904 Z M219.747,442.904 L219.747,442.904 C218.247,450.141 215.742,456.832 215.742,456.832 C215.742,456.832 210.126,448.976 209.767,443.03 C209.114,432.257 221.243,435.665 219.748,442.901 L219.748,442.904 L219.747,442.904 Z" id="Shape" fill="#666666"></path>
                <g id="Group" transform="translate(189.000000, 137.000000)" fill="#FFFFFF">
                    <path d="M6.359,12.269 C9.331,12.269 11.757,9.845 11.757,6.868 C11.757,3.894 9.333,1.47 6.359,1.47 C3.387,1.47 0.961,3.894 0.961,6.868 C0.961,9.842 3.384,12.269 6.359,12.269 L6.359,12.269 Z" id="Shape"></path>
                    <path d="M109.784,11.293 C112.756,11.293 115.185,8.869 115.185,5.895 C115.185,2.921 112.759,0.494 109.784,0.494 C106.812,0.494 104.386,2.918 104.386,5.895 C104.386,8.869 106.809,11.293 109.784,11.293 L109.784,11.293 Z" id="Shape"></path>
                </g>
            </g>
        </g>
    </g>
</svg>