<?xml version="1.0" encoding="UTF-8" standalone="no"?>
<svg width="512px" height="512px" viewBox="0 0 512 512" version="1.1" xmlns="http://www.w3.org/2000/svg" xmlns:xlink="http://www.w3.org/1999/xlink">
    <!-- Generator: Sketch 41 (35326) - http://www.bohemiancoding.com/sketch -->
    <title>pen</title>
    <desc>Created with Sketch.</desc>
    <defs></defs>
    <g id="Page-1" stroke="none" stroke-width="1" fill="none" fill-rule="evenodd">
        <g id="pen">
            <g id="Layer_1">
                <path d="M256.001,512 C397,512 512,397 512,256.001 C512,115 397,0 256.001,0 C115.001,0 0,115 0,256.001 C0,397 115.001,512 256.001,512 L256.001,512 Z" id="Shape" fill="#1A91A1"></path>
                <path d="M314.869,128.279 L201.704,126.522 C204.636,173.712 192.649,222.881 169.435,273.529 L251.57,460.63 L247.137,297.763 L246.999,291.955 C242.267,288.756 239.17,283.093 239.267,276.678 C239.42,266.863 247.018,259.03 256.242,259.171 C265.467,259.313 272.82,267.38 272.668,277.198 C272.568,283.612 269.29,289.184 264.457,292.231 L264.142,298.029 L254.658,460.695 L342.564,276.216 C320.932,224.873 310.477,175.354 314.869,128.279 L314.869,128.279 L314.869,128.279 Z" id="Shape" fill="#D0D1D4"></path>
                <path d="M259.358,127.417 L201.704,126.521 C204.636,173.711 192.649,222.88 169.435,273.528 L251.57,460.629 L247.137,297.762 L246.999,291.954 C242.267,288.755 239.17,283.092 239.267,276.677 C239.42,266.862 247.018,259.029 256.242,259.17 C256.736,259.178 257.222,259.208 257.699,259.259 L259.358,127.417 L259.358,127.417 L259.358,127.417 Z M255.312,449.473 L255.312,449.473 L255.185,459.588 L254.659,460.695 L255.312,449.473 L255.312,449.473 L255.312,449.473 Z" id="Shape" fill="#FFFFFF"></path>
                <path d="M183.479,10.509 L186.327,108.578 L186.198,116.706 C185.981,130.792 195.74,129.567 207.618,129.754 L304.291,131.251 C316.163,131.438 325.886,132.981 326.108,118.876 L326.224,111.205 L332.025,11.557 C307.99,4.048 282.453,0 256.001,0 C230.827,0 206.489,3.684 183.479,10.509 L183.479,10.509 L183.479,10.509 Z" id="Shape" fill="#EC4B53"></path>
                <path d="M183.479,10.509 L186.327,108.578 L186.198,116.704 C185.981,130.791 195.74,129.567 207.618,129.753 L258.265,130.536 L259.748,0.048 C258.5,0.029 257.254,0 256.001,0 C230.827,0 206.489,3.684 183.479,10.509 L183.479,10.509 L183.479,10.509 Z" id="Shape" fill="#FF5B61"></path>
            </g>
        </g>
    </g>
</svg>